<svg version="1.1" viewBox="0.0 0.0 960.0 480.0" fill="none" stroke="none" stroke-linecap="square" stroke-miterlimit="10" xmlns:xlink="http://www.w3.org/1999/xlink" xmlns="http://www.w3.org/2000/svg"><clipPath id="p.0"><path d="m0 0l960.0 0l0 480.0l-960.0 0l0 -480.0z" clip-rule="nonzero"/></clipPath><g clip-path="url(#p.0)"><path fill="#000000" fill-opacity="0.0" d="m0 0l960.0 0l0 480.0l-960.0 0z" fill-rule="evenodd"/><path fill="#000000" fill-opacity="0.0" d="m-3.0866141 84.86614l966.1732 0l0 310.2677l-966.1732 0z" fill-rule="evenodd"/><path fill="#ffffff" d="m187.38281 253.2505q0 31.98439 -20.328125 53.26564q-20.328125 21.265625 -47.046883 21.265625q-24.03125 0 -43.359375 -17.703125q-23.906246 -21.90625 -23.906246 -56.82814q0 -34.921875 23.906246 -56.953125q19.328125 -17.703125 43.359375 -17.703125q26.718758 0 47.046883 21.28125q20.328125 21.265625 20.328125 53.375zm-24.015625 0q0 -21.921875 -13.25 -36.265625q-13.234375 -14.359375 -30.109383 -14.359375q-16.765625 0 -30.015625 14.421875q-13.234375 14.40625 -13.234375 36.203125q0 21.79689 13.234375 36.156265q13.25 14.34375 30.015625 14.34375q16.875008 0 30.109383 -14.296875q13.25 -14.296875 13.25 -36.20314zm91.99219 12.656265q0 -20.51564 6.796875 -41.48439q5.03125 -15.46875 15.578125 -34.453125q7.625 -13.59375 11.25 -16.703125q3.640625 -3.109375 8.09375 -3.109375q5.15625 0 8.671875 3.515625q3.515625 3.515625 3.515625 8.4375q0 3.40625 -2.8125 8.09375q-12.65625 20.734375 -18.46875 38.90625q-5.796875 18.15625 -5.796875 36.79689q0 18.75 5.796875 36.921875q5.8125 18.15625 18.46875 38.90625q2.8125 4.5625 2.8125 8.078125q0 4.921875 -3.515625 8.4375q-3.515625 3.515625 -8.671875 3.515625q-4.34375 0 -7.625 -2.8125q-4.6875 -4.09375 -12.421875 -18.390625q-11.125 -20.75 -15.234375 -34.234375q-6.4375 -20.625 -6.4375 -40.421875zm138.74219 9.609375l0 24.71875l24.265625 0q8.671875 0 12.359375 3.34375q3.6875 3.34375 3.6875 8.734375q0 5.265625 -3.6875 8.609375q-3.6875 3.34375 -12.359375 3.34375l-52.03125 0q-8.671875 0 -12.375 -3.34375q-3.6875 -3.34375 -3.6875 -8.734375q0 -5.265625 3.75 -8.609375q3.75 -3.34375 12.3125 -3.34375l3.75 0l0 -93.98439l-3.75 0q-8.671875 0 -12.375 -3.328125q-3.6875 -3.34375 -3.6875 -8.734375q0 -5.390625 3.6875 -8.734375q3.703125 -3.34375 12.375 -3.34375l55.3125 0.125q24.375 0 38.609375 13.296875q14.234375 13.296875 14.234375 32.40625q0 10.546875 -4.796875 19.921875q-3.640625 7.03125 -12.140625 13.89064q-8.484375 6.84375 -17.34375 10.3125q-8.84375 3.453125 -23.375 3.453125l-22.734375 0zm0 -24.031265l22.265625 0q15.703125 0 24.90625 -7.078125q9.203125 -7.09375 9.203125 -17.0625q0 -8.4375 -7.453125 -14.765625q-7.4375 -6.328125 -21.265625 -6.328125l-27.65625 0l0 45.234375zm157.61719 -48.046875l-28.234375 33.984375q-3.875 4.6875 -6.21875 6.09375q-2.34375 1.40625 -5.5 1.40625q-5.046875 0 -8.625 -3.5625q-3.5625 -3.578125 -3.5625 -8.734375q0 -4.109375 5.265625 -10.546875l46.875 -56.609375l47.234375 56.609375q3.390625 4.09375 4.390625 6.203125q1.0 2.109375 1.0 4.453125q0 5.046875 -3.578125 8.625q-3.578125 3.5625 -8.5 3.5625q-3.28125 0 -5.625 -1.40625q-2.34375 -1.40625 -6.203125 -5.96875l-28.71875 -34.109375zm121.88281 96.79689l52.609375 0q4.34375 -3.515625 8.203125 -3.515625q5.515625 0 8.734375 3.640625q3.21875 3.625 3.21875 12.421875l0 11.484375l-109.453125 0l0 -25.4375q64.921875 -53.54689 78.40625 -68.906265q6.796875 -7.84375 6.796875 -14.875q0 -8.796875 -7.6875 -15.53125q-7.671875 -6.734375 -20.4375 -6.734375q-12.890625 0 -21.453125 7.5q-4.453125 3.984375 -7.140625 11.828125q-1.640625 4.921875 -4.515625 7.03125q-2.875 2.109375 -7.09375 2.109375q-4.921875 0 -8.5 -3.515625q-3.5625 -3.515625 -3.5625 -8.203125q0 -7.03125 6.5 -17.578125q6.5 -10.546875 18.984375 -16.875q12.484375 -6.328125 27.125 -6.328125q22.734375 0 37.265625 13.78125q14.53125 13.765625 14.53125 33.328125q0 9.96875 -4.15625 18.46875q-4.15625 8.484375 -19.984375 23.48439q-12.421875 11.84375 -48.390625 42.421875zm176.71094 -34.328125q0 20.5 -6.796875 41.59375q-5.03125 15.46875 -15.578125 34.34375q-7.625 13.59375 -11.265625 16.75q-3.625 3.171875 -8.078125 3.171875q-5.15625 0 -8.671875 -3.515625q-3.515625 -3.515625 -3.515625 -8.4375q0 -3.515625 2.8125 -8.078125q12.65625 -20.75 18.453125 -38.90625q5.8125 -18.171875 5.8125 -36.921875q0 -18.64064 -5.8125 -36.79689q-5.796875 -18.171875 -18.453125 -38.90625q-2.8125 -4.6875 -2.8125 -8.09375q0 -4.921875 3.515625 -8.4375q3.515625 -3.515625 8.671875 -3.515625q4.34375 0 7.625 2.8125q4.6875 3.984375 12.421875 18.40625q11.125 20.734375 15.234375 34.09375q6.4375 20.75 6.4375 40.437515z" fill-rule="nonzero"/></g></svg>